<svg width="130" height="143" viewBox="0 0 130 143" fill="none" xmlns="http://www.w3.org/2000/svg">
<path d="M129.999 67.4038C129.999 31.5288 100.898 2.44638 64.9996 2.44638C29.1013 2.44638 0 31.5288 0 67.4038C0 103.279 29.1013 132.361 64.9996 132.361C100.898 132.361 129.999 103.279 129.999 67.4038Z" fill="#69503C"/>
<path fill-rule="evenodd" clip-rule="evenodd" d="M50.4455 80.9088C59.7115 85.8479 70.1022 85.2992 78.2434 80.9085V91.7284L78.3353 91.726V98.0787H50.4455V80.9088Z" fill="#BB7D52"/>
<path fill-rule="evenodd" clip-rule="evenodd" d="M50.4453 89.9242C59.7112 94.8635 70.1021 94.3147 78.2434 89.9242V96.824L84.5037 96.668L84.5814 96.671C84.5814 113.302 44.8213 115.792 44.8213 96.6459L44.9765 96.639L50.4453 96.6668V89.9242Z" fill="#D08B5B"/>
<path fill-rule="evenodd" clip-rule="evenodd" d="M34.1678 21.5731C56.2804 7.49361 84.5697 12.5004 94.1276 21.7847C96.8909 28.4342 97.0861 34.848 96.2732 41.7326C98.14 40.3931 100.36 40.6997 102.109 41.9472C102.818 47.66 104.716 58.9611 96.21 59.4514C93.2816 95.9065 39.6264 100.444 32.3736 59.5706C23.9434 59.2799 26.2166 47.8585 26.7433 42.3737C28.7658 40.8351 31.0755 41.6094 32.5091 42.2978L34.1678 21.5731Z" fill="#D08B5B"/>
<path fill-rule="evenodd" clip-rule="evenodd" d="M44.7609 43.1711C43.2222 43.8963 41.451 45.7238 41.451 46.5941C41.451 47.2612 41.9156 47.2612 42.8157 46.5361C45.1672 44.6795 50.161 44.6795 52.7158 46.507C53.2093 46.8262 53.7319 47.1161 53.9062 47.1161C54.5158 47.1161 54.2255 46.0718 53.2966 44.9694C52.0771 43.461 49.8997 42.4748 47.8383 42.4748C46.7641 42.4748 45.748 42.7068 44.7609 43.1709V43.1711Z" fill="#533824"/>
<path fill-rule="evenodd" clip-rule="evenodd" d="M78.4388 43.1711C76.9002 43.8963 75.129 45.7238 75.129 46.5941C75.129 47.2612 75.5936 47.2612 76.4937 46.5361C78.8452 44.6795 83.839 44.6795 86.3938 46.507C86.8873 46.8262 87.4099 47.1161 87.5842 47.1161C88.1938 47.1161 87.9036 46.0718 86.9744 44.9694C85.7552 43.461 83.5777 42.4748 81.5163 42.4748C80.4421 42.4748 79.426 42.7068 78.4389 43.1709L78.4388 43.1711Z" fill="#533824"/>
<path fill-rule="evenodd" clip-rule="evenodd" d="M57.9127 57.0372C58.2322 58.2845 59.1612 59.271 60.7869 60.0542C62.0935 60.6923 62.7612 60.8374 64.6774 60.8374C66.5934 60.8374 67.2613 60.6923 68.5677 60.0542C70.1936 59.271 71.1226 58.2847 71.4419 57.0372L71.5871 56.3991H64.6774H57.7675L57.9127 57.0372Z" fill="#AF754C"/>
<path fill-rule="evenodd" clip-rule="evenodd" d="M56.5773 68.6986C56.9547 71.1064 58.7837 73.5721 61.0483 74.7324C62.7031 75.6027 65.7516 75.7767 67.4937 75.1096C70.1066 74.0943 72.3712 71.3674 72.7777 68.6986H56.5773Z" fill="#3E291B"/>
<path d="M74.9206 124.657L76.785 123.143C77.217 122.792 77.8521 122.857 78.2033 123.289C78.5546 123.721 78.4891 124.355 78.057 124.706L77.1548 125.439L83.7055 130.954C84.1375 131.305 84.203 131.939 83.8517 132.371C83.6525 132.616 83.3619 132.743 83.0689 132.743C82.8455 132.743 82.6204 132.669 82.4335 132.517L74.9206 126.22C74.6853 126.029 74.5485 125.742 74.5485 125.439C74.5485 125.136 74.6853 124.849 74.9206 124.657Z" fill="#7B4AE2"/>
<path d="M83.1995 115.403C83.7347 115.407 84.1652 115.844 84.1609 116.379L84.0776 131.782C84.0733 132.317 83.6358 132.747 83.1006 132.743C82.9649 132.742 82.8362 132.713 82.7194 132.662C82.3753 132.511 82.1358 132.166 82.139 131.766L82.2225 116.364C82.2268 115.829 82.6641 115.399 83.1995 115.403Z" fill="#7B4AE2"/>
<path d="M87.4542 125.998L88.1427 125.439L85.6903 123.446C85.2582 123.095 85.1929 122.461 85.5441 122.029C85.8953 121.598 86.5303 121.532 86.9624 121.883L90.3767 124.657C90.6122 124.849 90.7489 125.136 90.7489 125.439C90.7489 125.742 90.6122 126.029 90.3767 126.22L88.7262 127.561C88.5393 127.713 88.3143 127.787 88.0909 127.787C87.7978 127.787 87.5071 127.66 87.3079 127.415C86.9568 126.984 87.0223 126.349 87.4542 125.998Z" fill="#C83267"/>
<path fill-rule="evenodd" clip-rule="evenodd" d="M44.6444 96.6563C36.0801 97.4898 28.2994 100.679 21.8251 105.996C16.2539 110.551 14.6996 114.171 10.6208 119.327C18.9314 127.942 30.1067 135.242 42.2932 139.274C50.4222 141.946 55.9675 142.808 64.6772 142.808C73.3873 142.808 78.9324 141.946 87.0617 139.274C99.356 135.345 109.712 128.907 119.047 119.667C112.654 111.421 110.022 106.016 99.7197 100.938C95.3937 98.7828 90.313 97.231 86.4227 96.8286L84.5905 96.6637L84.5034 96.6617L84.3034 98.0357C83.4325 104.588 75.2165 109.416 64.9677 109.416C54.7193 109.416 46.6482 104.645 45.6028 98.007C45.3998 96.6851 45.3125 96.57 44.6449 96.6563H44.6444Z" fill="#111517"/>
<path fill-rule="evenodd" clip-rule="evenodd" d="M49.9571 84.9797L49.8362 84.9418C49.505 84.8377 51.1312 84.0957 51.7073 83.8201C53.4012 83.0108 55.6103 83.1763 58.372 84.3352C59.4379 84.6492 60.9798 85.49 62.2197 85.9172C64.951 86.8823 66.3464 86.3283 68.8106 85.2735L70.9646 84.3352C73.7263 83.1763 75.9354 83.0108 77.6293 83.8201C78.1972 84.0883 78.7581 84.4363 79.1852 84.8082L79.3138 84.92C74.3706 88.6876 58.5255 90.5606 49.9571 84.9797Z" fill="#2C1B18" fill-opacity="0.501961"/>
<path d="M56.1536 2.40758L57.9827 1.21814C58.9988 0.550851 60.1312 0 60.5377 0C60.9442 0.0290269 62.0475 0.406211 62.9764 0.870312C64.4571 1.59549 64.9217 1.7116 66.199 1.56646C67.3894 1.42149 67.9411 1.50857 68.9282 2.0017C69.8862 2.49483 70.4379 2.61094 71.454 2.43677C72.441 2.2918 73.0797 2.40791 74.1831 2.87201C75.2283 3.33611 75.7798 3.42303 76.3025 3.22001C77.2605 2.84299 78.1896 3.36514 79.2057 4.84452C80.1928 6.3531 78.3001 6.61417 81 6.06299C82.684 5.74386 84 6.96183 86.2897 6.14991C86.851 5.95088 86.7251 6.84622 86.3769 8.41268C86.1736 9.36991 86.0866 10.2402 86.1736 10.3271C86.2316 10.4142 87.0737 10.2691 87.9736 10.037C90.7899 9.31186 91.4866 9.95012 90.906 12.7929C90.7608 13.5471 90.7898 13.5471 91.9802 13.3151C92.6479 13.199 93.8093 13.083 94.5642 13.054C95.7253 13.054 96.0158 13.17 96.4222 13.7792C96.8576 14.4173 96.8576 14.6784 96.5092 15.8968C96.0158 17.6373 96.0739 18.2756 96.9447 19.958C98.1061 22.2496 98.6578 27.2971 97.9608 29.2987C97.6415 30.169 97.5545 30.227 96.5092 30.0821C95.8705 29.995 93.1125 28.7186 90.1512 27.1232C81.6736 22.5687 78.8334 28.7898 72.5 26.5C66.199 24.2219 57.9827 24.2219 51.9729 27.1232C44.9909 30.4937 42.7406 21.9593 35.889 30.2851C35.0147 31.3474 32.1437 39.7416 31.9695 43.9188C31.563 42.8455 31.447 32.4895 31.7952 28.7764C32.1436 24.9471 32.1436 24.9183 31.5049 24.2219C30.6631 23.3228 30.8662 22.5974 32.1726 21.9593C33.4211 21.3791 33.4501 21.234 32.6662 20.2187C31.5339 18.7974 32.1436 17.463 34.234 16.9408C35.3661 16.6797 35.7437 16.0415 35.163 15.4324C34.0598 14.1849 35.134 13.0537 37.3985 13.0537C38.763 13.0537 35.3373 11.5454 35.889 10.3271C36.2664 9.51488 39.9244 9.92076 39.9244 8.5283C39.9244 6.61368 39.9824 6.43968 40.6792 6.12055C41.2888 5.85947 41.6372 5.8885 42.7406 6.38163C43.4663 6.70076 44.2213 6.96183 44.4245 6.96183C45.0052 6.96183 45.702 5.97558 45.9051 4.90225C46.1664 3.59686 48.373 6.06299 49.0117 6.06299C49.302 6.06299 48.431 2.95876 49.0117 3.36481C50.4633 4.3222 51.3052 4.14804 51.9729 2.69769C53.0761 0.347993 53.7729 0.0869157 55.2245 1.50824L56.1536 2.40758Z" fill="#2C1B18"/>
<path d="M96.9157 31.7355C98.1351 32.8668 98.8319 36.3768 98.8609 41.3373L96.9157 46.5L96.1318 41.5404C95.8124 38.4075 94.8544 34.7815 93.7803 32.6348C92.9092 30.8943 92.8222 30.5752 93.1706 30.2271C93.519 29.8499 93.7512 29.8789 94.8835 30.4301C95.6093 30.7782 96.5092 31.3584 96.9157 31.7355Z" fill="#2C1B18"/>
</svg>
